inDegrees=yes
name=ik_coleta2_trike_5hz_mov
DataType=double
version=3
OpenSimVersion=4.4-2022-07-23-0e9fedc
endheader
time	hip_flexion_r	knee_angle_r	hip_flexion_l	knee_angle_l	gearToGround_coord_0
37.46238708496094	100.1701332969548	-73.17830790225915	96.20179602692305	-101.3975104251729	-1826.041589313772
37.46738910675049	99.96935697432022	-72.95032655547686	96.38173236803526	-101.6114543973697	-1826.54617306139
37.47246313095093	99.7614734213369	-72.71507090457641	96.57864988042141	-101.8272461065392	-1827.067183781396
37.47740983963013	99.54918236317059	-72.47566227750134	96.74481668464198	-102.0932343131587	-1827.599478859434
37.48039221763611	99.335827046546	-72.2359023689465	97.03742117320796	-102.5054558066658	-1828.135936739181
37.48739290237427	99.1233216115634	-71.9979620638757	97.13463364189869	-102.5115642994216	-1828.670020458803
37.49539709091187	98.91230523021464	-71.76252413279991	97.37675507151154	-102.7233396601449	-1829.200643320044
37.50238990783691	98.70919773969234	-71.53672220024831	97.59087527481111	-102.9478840340723	-1829.712635072492
37.50744199752808	98.51600312964931	-71.32266659324206	97.71639419706901	-103.1300165740387	-1830.199471093158
37.51539492607117	98.32883070950514	-71.11590285644432	97.94631706247004	-103.3434980616329	-1830.671923703146
37.52142715454102	98.15161048509651	-70.920876587585	98.03173755047706	-103.5101195048829	-1831.11983690526
37.52546501159668	97.97327935732343	-70.72518500617757	98.19628413487592	-103.6926154489679	-1831.569680179551
37.53039288520813	97.78598242073687	-70.52031840606057	98.36792663624887	-103.8848649704517	-1832.04317681714
37.53539085388184	97.58309834504128	-70.29917949809366	98.55704754731478	-104.0911320474222	-1832.557301079443
37.54143810272217	97.35479018481109	-70.05129996368879	98.77102746999196	-104.3212714170707	-1833.136146096805
37.54739499092102	97.0929714655279	-69.76830873748932	99.01746760567501	-104.5847425057416	-1833.802214335573
37.5544159412384	96.78428500620184	-69.43643178186453	99.31415543397264	-104.8893572879402	-1834.588777593063
37.56040215492249	96.42002072354899	-69.04731353655515	99.66540601543477	-105.2444836911217	-1835.513538482024
37.56539511680603	95.99103087728184	-68.59253771858644	100.0903759653771	-105.6630763115368	-1836.61713996871
37.5704300403595	95.52421693265683	-68.10212203298154	100.5243042072532	-106.1228645363084	-1837.816522797718
37.57740783691406	95.01903436357389	-67.57667710618848	101.0123463718513	-106.6185401315752	-1839.12289912413
37.58439803123474	94.49820505127629	-67.04089391053782	101.6120244312053	-107.1033803565472	-1840.478547066193
37.59143996238708	93.96314553572606	-66.49672368555898	102.0981952045831	-107.7216558654154	-1841.879071564661
37.59839296340942	93.41831397040272	-65.95009610860151	102.6246205977079	-108.1013380226295	-1843.320666936142
37.60442209243774	92.86769923485201	-65.40449523282599	103.2133421070221	-108.5803583832791	-1844.786381235652
37.6104109287262	92.32682050968964	-64.87701378273449	104.037315289726	-109.3063625735303	-1846.240177681351
37.62143993377686	91.80120588149686	-64.37133080293511	104.3048824218774	-109.5132328095916	-1847.635446027494
37.6374409198761	91.30921940950562	-64.04003939102414	104.9492806263588	-110.1758633507653	-1848.916869793161
37.64238500595093	90.8492559279878	-63.71713733267087	105.4543035650002	-110.456134349065	-1850.610870885491
37.64638304710388	90.39643485522789	-63.32225433627102	106.0571714136677	-110.8732921956163	-1852.140729059934
37.65339517593384	89.98862807185695	-62.95714443755	106.5093359881922	-111.2352618836505	-1853.315161450064
37.66639494895935	89.59702786803166	-62.6121978572851	106.9552905294125	-111.5392925653578	-1854.459511154127
37.67445492744446	89.22566583622482	-62.29053017172946	107.397201148979	-111.8001222437112	-1855.559679908202
37.67838597297668	88.87466442914183	-61.99153484585815	107.8177811601024	-112.0661896486747	-1856.614779093281
37.68239188194275	88.53530997337835	-61.70743061708854	108.1910799472002	-112.3576001602132	-1857.642729657528
37.68741393089294	88.20499465781946	-61.43549314784931	108.6378846746274	-112.5681645956667	-1858.658588677985
37.69240212440491	87.88122268320035	-61.17385922696497	108.9738918346143	-112.8262742408797	-1859.667436407683
37.69638800621033	87.55174074991001	-60.91284386219238	109.4065536867091	-113.0374215422077	-1860.708633748631
37.70239186286926	87.21608712261767	-60.65272164072101	109.7862621941705	-113.2877858140347	-1861.781414778089
37.7064471244812	86.87212839752591	-60.39219508416259	110.2140419124749	-113.5173358063124	-1862.899899715238
37.71339297294617	86.50261683252037	-60.11998076518339	110.6990226451442	-113.7496172378503	-1864.122463222986
37.71739196777344	86.10108843937086	-59.83364787261762	111.2129560430957	-114.0051199421982	-1865.477323259798
37.7224440574646	85.66107512291796	-59.53215288349008	111.8249589260297	-114.2868209564496	-1866.997831484238
37.72640609741211	85.17838198578988	-59.21753007199718	112.3668741601792	-114.6162606724679	-1868.712233499035
37.73037695884705	84.65444301737615	-58.8973429149811	113.0604103091359	-114.9034889152751	-1870.636482421179
37.73539185523987	84.0931597700057	-58.58227436164443	113.8483774935813	-115.2526109420342	-1872.782950687925
37.7404568195343	83.49258218949052	-58.28206190058425	114.6728925806046	-115.5116655686191	-1875.192631955882
37.7453989982605	82.86875137759667	-58.01863485648358	115.5278383157158	-115.6493193232575	-1877.846719421859
37.74939203262329	82.22745427932381	-57.81103089435909	116.6814904596278	-116.1028192720415	-1880.775892452268
37.7534167766571	81.58607646397989	-57.68546603609089	117.4265365420938	-115.9834862068855	-1883.971502477532
37.75941705703735	80.97429754288605	-57.6680653317254	118.4290573575813	-115.9301832752644	-1887.355727056016
37.76539206504822	80.43197757272033	-57.77025638240763	119.2536630974917	-115.8665895413783	-1890.748676744153
37.77642583847046	79.98488841625327	-57.97650383178183	120.010443548403	-115.7310398012853	-1893.959651870255
37.78039503097534	79.63590119025655	-58.25369887652262	120.6286268765462	-115.4997304087826	-1896.864780526942
